<svg xmlns="http://www.w3.org/2000/svg" width="512" height="512" viewBox="0 0 512 512">
  <defs>
    <radialGradient id="bg" cx="50%" cy="32%" r="80%">
      <stop offset="0%" stop-color="#1b245a"/>
      <stop offset="60%" stop-color="#131a40"/>
      <stop offset="100%" stop-color="#0b1026"/>
    </radialGradient>
    <linearGradient id="flame" x1="0" y1="0" x2="0" y2="1">
      <stop offset="0%" stop-color="#ffe27a"/>
      <stop offset="55%" stop-color="#ffb86b"/>
      <stop offset="100%" stop-color="#ff7fb3"/>
    </linearGradient>
    <linearGradient id="body" x1="0" y1="0" x2="1" y2="0">
      <stop offset="0%" stop-color="#cdd8ff"/>
      <stop offset="45%" stop-color="#ffffff"/>
      <stop offset="100%" stop-color="#aab8e8"/>
    </linearGradient>
  </defs>

  <!-- background -->
  <rect x="0" y="0" width="512" height="512" rx="112" fill="url(#bg)"/>

  <!-- stars -->
  <g fill="#ffffff">
    <circle cx="92" cy="110" r="4" opacity=".9"/>
    <circle cx="150" cy="200" r="2.5" opacity=".7"/>
    <circle cx="410" cy="130" r="5" opacity=".95"/>
    <circle cx="440" cy="240" r="2.5" opacity=".6"/>
    <circle cx="80" cy="330" r="3" opacity=".7"/>
    <circle cx="120" cy="420" r="3.5" opacity=".8"/>
    <circle cx="420" cy="400" r="3" opacity=".7"/>
    <g fill="#ffd24a">
      <path d="M380 70 l4 12 12 4 -12 4 -4 12 -4 -12 -12 -4 12 -4z"/>
      <path d="M110 250 l3 9 9 3 -9 3 -3 9 -3 -9 -9 -3 9 -3z" opacity=".9"/>
    </g>
  </g>

  <!-- rocket, centered ~256,256 -->
  <g transform="translate(256 262) rotate(45)">
    <!-- flame -->
    <path d="M0 118 C -26 86 -26 64 0 40 C 26 64 26 86 0 118 Z" fill="url(#flame)"/>
    <path d="M0 96 C -12 78 -12 64 0 50 C 12 64 12 78 0 96 Z" fill="#fff6d6" opacity=".85"/>
    <!-- fins -->
    <path d="M-34 28 C -60 44 -64 70 -58 86 C -42 78 -30 60 -28 40 Z" fill="#ff7fb3"/>
    <path d="M34 28 C 60 44 64 70 58 86 C 42 78 30 60 28 40 Z" fill="#ff7fb3"/>
    <!-- body -->
    <path d="M0 -120 C 34 -84 40 -34 40 18 C 40 44 22 56 0 56 C -22 56 -40 44 -40 18 C -40 -34 -34 -84 0 -120 Z" fill="url(#body)"/>
    <!-- window -->
    <circle cx="0" cy="-26" r="26" fill="#1b245a"/>
    <circle cx="0" cy="-26" r="20" fill="#6ce5c8"/>
    <circle cx="-7" cy="-33" r="6" fill="#d6fff4" opacity=".9"/>
    <!-- body shading -->
    <path d="M0 -120 C -34 -84 -40 -34 -40 18 C -40 40 -28 52 -12 55 C -20 30 -20 -40 0 -120 Z" fill="#7f8fc8" opacity=".35"/>
  </g>
</svg>
